<?xml version="1.0" encoding="UTF-8"?>
<svg width="54px" height="38px" viewBox="0 0 54 38" version="1.1" xmlns="http://www.w3.org/2000/svg" xmlns:xlink="http://www.w3.org/1999/xlink">
    <title>burger</title>
    <g id="Page-1" stroke="none" stroke-width="1" fill="none" fill-rule="evenodd">
        <g id="burger" fill="#000000" fill-rule="nonzero">
            <path d="M52,17 L2,17 C0.8954305,17 0,17.8954305 0,19 C0,20.1045695 0.8954305,21 2,21 L52,21 C53.1045695,21 54,20.1045695 54,19 C54,17.8954305 53.1045695,17 52,17 Z" id="Path"></path>
            <path d="M52,33.83 L2,33.83 C0.8954305,33.83 0,34.7254305 0,35.83 C0,36.9345695 0.8954305,37.83 2,37.83 L52,37.83 C53.1045695,37.83 54,36.9345695 54,35.83 C54,34.7254305 53.1045695,33.83 52,33.83 Z" id="Path"></path>
            <path d="M2,4.17 L52,4.17 C53.1045695,4.17 54,3.2745695 54,2.17 C54,1.0654305 53.1045695,0.17 52,0.17 L2,0.17 C0.8954305,0.17 0,1.0654305 0,2.17 C0,3.2745695 0.8954305,4.17 2,4.17 Z" id="Path"></path>
        </g>
    </g>
</svg>