<?xml version="1.0" encoding="UTF-8"?>
<svg width="89px" height="78px" viewBox="0 0 89 78" version="1.1" xmlns="http://www.w3.org/2000/svg" xmlns:xlink="http://www.w3.org/1999/xlink">
    <title>Path</title>
    <defs>
        <filter x="0.0%" y="0.0%" width="100.0%" height="100.0%" filterUnits="objectBoundingBox" id="filter-1">
            <feGaussianBlur stdDeviation="0" in="SourceGraphic"></feGaussianBlur>
        </filter>
    </defs>
    <g id="Page-1" stroke="none" stroke-width="1" fill="none" fill-rule="evenodd">
        <g id="Artboard-Copy-2" transform="translate(-392.000000, -141.000000)" fill="#FFFFFF" fill-rule="nonzero">
            <g id="noun_chat_974599" transform="translate(392.000000, 141.000000)">
                <path d="M75.6,0.1 L14.4,0.1 C7,0.1 0.9,6.2 0.9,13.6 L0.9,48.3 C0.9,55.7 7,61.8 14.4,61.8 L31.5,61.8 L31.5,75.4 C31.5,76.4 32.1,77.3 33,77.7 C33.3,77.8 33.7,77.9 34,77.9 C34.6,77.9 35.2,77.7 35.7,77.3 L53,61.8 L75.5,61.8 C82.9,61.8 89,55.7 89,48.3 L89,13.6 C89.1,6.2 83,0.1 75.6,0.1 Z" id="Path" filter="url(#filter-1)"></path>
            </g>
        </g>
    </g>
</svg>