<?xml version="1.0" encoding="UTF-8"?>
<svg width="423px" height="104px" viewBox="0 0 423 104" version="1.1" xmlns="http://www.w3.org/2000/svg" xmlns:xlink="http://www.w3.org/1999/xlink">
    <!-- Generator: Sketch 55 (78076) - https://sketchapp.com -->
    <title>EH-FM_Logo_Black</title>
    <desc>Created with Sketch.</desc>
    <defs>
        <polygon id="path-1" points="0.06 0.168 423.06 0.168 423.06 103.168 0.06 103.168"></polygon>
    </defs>
    <g id="Page-1" stroke="none" stroke-width="1" fill="none" fill-rule="evenodd">
        <g id="EH-FM_Logo_Black">
            <mask id="mask-2" fill="white">
                <use xlink:href="#path-1"></use>
            </mask>
            <g id="Clip-2"></g>
            <path d="M314.98,28.537 L330.531,28.537 L330.531,38.904 L330.965,38.904 C332.211,37.082 333.554,35.4 334.996,33.865 C336.437,32.33 338.043,31.033 339.82,29.977 C341.593,28.922 343.636,28.082 345.941,27.457 C348.242,26.834 350.882,26.519 353.859,26.519 C358.371,26.519 362.57,27.529 366.461,29.545 C370.347,31.56 373.105,34.682 374.738,38.904 C377.523,35.066 380.738,32.041 384.386,29.832 C388.035,27.625 392.597,26.519 398.066,26.519 C405.937,26.519 412.058,28.441 416.429,32.281 C420.797,36.121 422.98,42.555 422.98,51.576 L422.98,102.985 L406.562,102.985 L406.562,59.496 C406.562,56.521 406.468,53.808 406.277,51.361 C406.082,48.912 405.531,46.803 404.621,45.023 C403.707,43.25 402.34,41.881 400.515,40.92 C398.691,39.961 396.195,39.48 393.027,39.48 C387.461,39.48 383.425,41.209 380.933,44.664 C378.433,48.121 377.187,53.015 377.187,59.352 L377.187,102.985 L360.773,102.985 L360.773,55.176 C360.773,49.992 359.836,46.082 357.965,43.439 C356.093,40.801 352.66,39.48 347.668,39.48 C345.554,39.48 343.515,39.912 341.547,40.777 C339.578,41.64 337.851,42.889 336.363,44.519 C334.875,46.154 333.675,48.17 332.765,50.568 C331.851,52.969 331.394,55.705 331.394,58.778 L331.394,102.985 L314.98,102.985 L314.98,28.537" id="Fill-7" fill="#C99EF8" mask="url(#mask-2)"></path>
            <path d="M54.719,59.209 C54.527,56.617 53.977,54.121 53.063,51.721 C52.153,49.322 50.903,47.234 49.32,45.457 C47.735,43.681 45.817,42.24 43.559,41.137 C41.305,40.033 38.785,39.48 36,39.48 C33.121,39.48 30.504,39.984 28.152,40.992 C25.797,42 23.781,43.392 22.106,45.168 C20.422,46.945 19.078,49.033 18.071,51.431 C17.063,53.834 16.512,56.426 16.414,59.209 L54.719,59.209 Z M16.414,70.008 C16.414,72.889 16.824,75.674 17.641,78.362 C18.453,81.049 19.68,83.401 21.313,85.416 C22.942,87.432 25.008,89.041 27.504,90.241 C30,91.442 32.977,92.041 36.434,92.041 C41.231,92.041 45.094,91.01 48.024,88.946 C50.953,86.881 53.137,83.786 54.574,79.657 L70.129,79.657 C69.266,83.688 67.774,87.289 65.664,90.457 C63.551,93.625 61.008,96.289 58.031,98.45 C55.055,100.608 51.719,102.243 48.024,103.344 C44.328,104.448 40.465,105 36.434,105 C30.574,105 25.391,104.039 20.879,102.121 C16.367,100.202 12.551,97.512 9.434,94.057 C6.313,90.6 3.961,86.475 2.375,81.672 C0.793,76.873 0,71.592 0,65.832 C0,60.555 0.84,55.537 2.52,50.785 C4.199,46.033 6.598,41.855 9.719,38.256 C12.84,34.656 16.606,31.801 21.024,29.687 C25.438,27.578 30.43,26.519 36,26.519 C41.856,26.519 47.109,27.744 51.77,30.191 C56.422,32.641 60.285,35.881 63.36,39.912 C66.43,43.945 68.664,48.576 70.055,53.808 C71.445,59.041 71.805,64.442 71.137,70.008 L16.414,70.008 L16.414,70.008 Z" id="Fill-1" fill="#C99EF8" mask="url(#mask-2)"></path>
            <path d="M90.461,0.168 L106.879,0.168 L106.879,38.328 L107.164,38.328 C109.18,34.969 112.18,32.16 116.164,29.904 C120.149,27.65 124.59,26.519 129.485,26.519 C137.645,26.519 144.074,28.633 148.781,32.855 C153.485,37.082 155.836,43.418 155.836,51.865 L155.836,102.985 L139.422,102.985 L139.422,56.183 C139.227,50.33 137.981,46.082 135.676,43.439 C133.375,40.801 129.774,39.48 124.879,39.48 C122.09,39.48 119.598,39.984 117.391,40.992 C115.18,42 113.309,43.392 111.774,45.168 C110.238,46.945 109.039,49.033 108.172,51.431 C107.309,53.834 106.879,56.377 106.879,59.065 L106.879,102.985 L90.461,102.985 L90.461,0.168" id="Fill-3" fill="#C99EF8" mask="url(#mask-2)"></path>
            <polygon id="Fill-4" fill="#C99EF8" mask="url(#mask-2)" points="174.985 71.592 246.984 71.592 246.984 56.041 174.985 56.041"></polygon>
            <path d="M256.031,28.537 L268.269,28.537 L268.269,22.344 C268.269,17.643 268.847,13.826 270,10.896 C271.148,7.969 272.683,5.713 274.605,4.129 C276.527,2.545 278.711,1.488 281.16,0.961 C283.605,0.433 286.172,0.168 288.863,0.168 C294.14,0.168 297.98,0.506 300.382,1.176 L300.382,13.992 C299.324,13.705 298.199,13.488 297,13.344 C295.797,13.201 294.382,13.129 292.75,13.129 C290.539,13.129 288.644,13.656 287.062,14.713 C285.476,15.769 284.687,17.834 284.687,20.904 L284.687,28.537 L298.656,28.537 L298.656,40.777 L284.687,40.777 L284.687,102.985 L268.269,102.985 L268.269,40.777 L256.031,40.777 L256.031,28.537" id="Fill-5" fill="#C99EF8" mask="url(#mask-2)"></path>
        </g>
    </g>
</svg>