<?xml version="1.0" encoding="UTF-8"?>
<svg width="240px" height="73px" viewBox="0 0 240 73" version="1.1" xmlns="http://www.w3.org/2000/svg" xmlns:xlink="http://www.w3.org/1999/xlink">
    <!-- Generator: Sketch 55 (78076) - https://sketchapp.com -->
    <title>logo</title>
    <desc>Created with Sketch.</desc>
    <g id="Page-1" stroke="none" stroke-width="1" fill="none" fill-rule="evenodd">
        <g id="logo" fill="#00AD96">
            <path d="M21.106,31.112 C22.455,30.421 24.193,30.075 26.263,30.075 C29.405,30.075 31.761,30.91 33.263,32.56 C34.315,33.716 35.16,35.261 35.793,37.183 C36.138,38.25 35.333,39.352 34.211,39.352 L17.633,39.352 C16.542,39.352 15.747,38.314 16.038,37.262 C16.063,37.159 16.092,37.05 16.127,36.936 C16.453,35.805 17.031,34.713 17.846,33.686 C18.651,32.673 19.748,31.809 21.106,31.112 M46.151,27.718 C44.057,24.863 41.355,22.566 38.114,20.877 C34.864,19.188 31.005,18.328 26.653,18.328 C22.766,18.328 19.169,19.034 15.964,20.417 C12.768,21.805 9.967,23.732 7.655,26.148 C5.338,28.558 3.525,31.458 2.275,34.758 C1.026,38.048 0.388,41.654 0.388,45.463 C0.388,49.404 1.006,53.07 2.226,56.36 C3.446,59.66 5.205,62.545 7.458,64.925 C9.71,67.311 12.496,69.179 15.741,70.468 C18.972,71.757 22.648,72.409 26.653,72.409 C32.443,72.409 37.462,71.066 41.557,68.423 C45.682,65.765 48.774,61.305 50.755,55.169 L51.046,54.27 L37.472,54.27 L37.329,54.769 C36.923,56.152 35.773,57.511 33.915,58.8 C32.038,60.099 29.761,60.761 27.138,60.761 C23.467,60.761 20.627,59.818 18.705,57.95 C17.199,56.498 16.221,54.285 15.771,51.361 C15.618,50.358 16.394,49.449 17.411,49.449 L51.615,49.449 L51.659,48.807 C51.916,44.875 51.585,41.051 50.666,37.45 C49.742,33.824 48.226,30.549 46.151,27.718" id="Fill-1"></path>
            <path d="M106.0483,24.2662 C104.6253,22.4042 102.6593,20.9322 100.1993,19.8852 C97.7643,18.8522 94.6273,18.3292 90.8733,18.3292 C88.1953,18.3292 85.4243,19.0202 82.6283,20.3842 C81.4573,20.9562 80.3703,21.6732 79.3733,22.5272 C78.2963,23.4462 76.6413,22.6852 76.6413,21.2732 L76.6413,2.2542 C76.6413,1.3402 75.9003,0.5992 74.9863,0.5992 L63.1603,0.5992 C62.2463,0.5992 61.5053,1.3402 61.5053,2.2542 L61.5053,69.4912 C61.5053,70.4042 62.2463,71.1452 63.1603,71.1452 L74.9863,71.1452 C75.9003,71.1452 76.6413,70.4042 76.6413,69.4912 L76.6413,44.2032 C76.6413,39.2782 77.4413,35.7172 79.0223,33.6272 C80.5533,31.5872 83.1073,30.5552 86.6103,30.5552 C89.6773,30.5552 91.7373,31.4492 92.9083,33.2872 C94.1183,35.2032 94.7353,38.1922 94.7353,42.1732 L94.7353,69.4912 C94.7353,70.4042 95.4773,71.1452 96.3903,71.1452 L108.2163,71.1452 C109.1313,71.1452 109.8713,70.4042 109.8713,69.4912 L109.8713,39.6542 C109.8713,36.5222 109.5903,33.6222 109.0313,31.0292 C108.4643,28.3912 107.4613,26.1192 106.0483,24.2662" id="Fill-3"></path>
            <path d="M237.6973,28.403 C236.7583,26.022 235.4253,24.056 233.7303,22.569 C232.0463,21.087 230.0003,19.996 227.6543,19.324 C225.3423,18.662 222.7983,18.326 220.1013,18.326 C216.4953,18.326 213.3193,19.215 210.6663,20.959 C209.0953,21.996 207.7123,23.132 206.5263,24.367 C205.8003,25.123 204.5853,25.005 203.9773,24.155 C202.7233,22.411 201.1673,21.097 199.3243,20.233 C196.6273,18.968 193.6143,18.326 190.3583,18.326 C186.9653,18.326 183.9023,19.077 181.2593,20.549 C180.1923,21.142 179.1843,21.833 178.2413,22.629 C177.1793,23.523 175.5493,22.732 175.5493,21.339 C175.5493,20.425 174.8083,19.684 173.8943,19.684 L162.8483,19.684 C161.9343,19.684 161.1893,20.425 161.1893,21.339 L161.1893,69.493 C161.1893,70.407 161.9343,71.148 162.8483,71.148 L174.6693,71.148 C175.5833,71.148 176.3243,70.407 176.3243,69.493 L176.3243,41.395 C176.3243,39.053 176.6603,37.147 177.3273,35.729 C177.9893,34.316 178.7843,33.224 179.7033,32.488 C180.6223,31.742 181.5803,31.234 182.5493,30.967 C183.5513,30.695 184.3563,30.557 184.9343,30.557 C186.9843,30.557 188.5353,30.893 189.5483,31.554 C190.5663,32.227 191.2723,33.091 191.7073,34.188 C192.1613,35.339 192.4183,36.618 192.4833,37.986 C192.5473,39.439 192.5763,40.911 192.5763,42.363 L192.5763,69.493 C192.5763,70.407 193.3223,71.148 194.2363,71.148 L206.0573,71.148 C206.9713,71.148 207.7123,70.407 207.7123,69.493 L207.7123,42.556 C207.7123,41.039 207.8253,39.528 208.0483,38.06 C208.2553,36.633 208.6853,35.343 209.3173,34.227 C209.9353,33.14 210.8043,32.241 211.8913,31.57 C212.9733,30.898 214.4303,30.557 216.2283,30.557 C218.0313,30.557 219.4643,30.853 220.4873,31.436 C221.4993,32.014 222.2703,32.799 222.7883,33.773 C223.3223,34.785 223.6533,36.001 223.7763,37.384 C223.9053,38.856 223.9693,40.432 223.9693,42.076 L223.9693,69.493 C223.9693,70.407 224.7103,71.148 225.6243,71.148 L237.4453,71.148 C238.3593,71.148 239.1003,70.407 239.1003,69.493 L239.1003,36.939 C239.1003,33.644 238.6253,30.769 237.6973,28.403" id="Fill-4"></path>
            <path d="M141.8403,18.1686 L141.8403,13.8366 C141.8403,12.6856 142.7743,11.7466 143.9243,11.7466 L149.3433,11.7416 C150.4953,11.7416 151.4233,10.8086 151.4233,9.6576 L151.4233,3.0036 C151.4233,1.8526 150.4903,0.9186 149.3433,0.9186 L130.0343,0.9186 C128.8833,0.9186 127.9493,1.8526 127.9493,3.0036 L127.9493,18.1686 C127.9493,19.3196 127.0153,20.2526 125.8643,20.2526 L121.7203,20.2526 C120.5693,20.2526 119.6353,21.1866 119.6353,22.3426 L119.6353,27.4606 C119.6353,28.6166 120.5693,29.5496 121.7203,29.5496 L125.8643,29.5496 C127.0153,29.5496 127.9493,30.4836 127.9493,31.6346 L127.9493,68.7426 C127.9493,69.8936 128.8833,70.8276 130.0343,70.8276 L139.7563,70.8276 C140.9063,70.8276 141.8403,69.8936 141.8403,68.7426 L141.8403,31.6346 C141.8403,30.4836 142.7743,29.5496 143.9243,29.5496 L149.3433,29.5496 C150.4903,29.5496 151.4233,28.6166 151.4233,27.4606 L151.4233,22.3426 C151.4233,21.1866 150.4903,20.2526 149.3433,20.2526 L143.9243,20.2526 C142.7743,20.2526 141.8403,19.3196 141.8403,18.1686" id="Fill-5"></path>
        </g>
    </g>
</svg>