<?xml version="1.0" encoding="UTF-8"?>
<svg width="18px" height="26px" viewBox="0 0 18 26" version="1.1" xmlns="http://www.w3.org/2000/svg" xmlns:xlink="http://www.w3.org/1999/xlink">
    <title>tot</title>
    <g id="Page-1" stroke="none" stroke-width="1" fill="none" fill-rule="evenodd">
        <g id="noun_tote-bag_2947979" transform="translate(-398.000000, 0.000000)" fill="#000000" fill-rule="nonzero">
            <g id="tot" transform="translate(398.000000, 0.000000)">
                <path d="M17,6 L14.93,6 C14.51,2.61 12,0 9,0 C6,0 3.49,2.61 3.07,6 L1,6 C0.44771525,6 0,6.44771525 0,7 L0,25 C0,25.5522847 0.44771525,26 1,26 L17,26 C17.5522847,26 18,25.5522847 18,25 L18,7 C18,6.44771525 17.5522847,6 17,6 Z M9,2 C10.93,2 12.55,3.72 12.92,6 L5.08,6 C5.45,3.72 7.07,2 9,2 Z" id="Shape"></path>
            </g>
        </g>
    </g>
</svg>