<?xml version="1.0" standalone="no"?>
<!DOCTYPE svg PUBLIC "-//W3C//DTD SVG 20010904//EN"
 "http://www.w3.org/TR/2001/REC-SVG-20010904/DTD/svg10.dtd">
<svg version="1.0" xmlns="http://www.w3.org/2000/svg"
 width="6000.000000pt" height="6000.000000pt" viewBox="0 0 6000.000000 6000.000000"
 preserveAspectRatio="xMidYMid meet">
<metadata>
Created by potrace 1.11, written by Peter Selinger 2001-2013
</metadata>
<g transform="translate(0.000000,6000.000000) scale(0.100000,-0.100000)"
fill="#000000" stroke="none">
<path d="M0 30000 l0 -30000 30000 0 30000 0 0 30000 0 30000 -30000 0 -30000
0 0 -30000z m17598 4413 c2 -1792 5 -2253 15 -2253 6 0 38 40 70 89 198 303
516 604 877 831 135 84 415 224 550 273 390 144 721 200 1175 200 296 -1 512
-17 755 -59 831 -142 1483 -532 1872 -1119 223 -337 364 -748 435 -1275 16
-115 17 -386 20 -3347 l3 -3223 -970 0 -970 0 0 2814 c0 1888 -3 2857 -11
2943 -66 809 -318 1305 -785 1545 -355 183 -908 240 -1389 143 -404 -82 -789
-305 -1063 -616 -236 -268 -443 -686 -521 -1051 -60 -280 -55 -34 -58 -3035
l-3 -2743 -975 0 -975 0 0 6063 c0 3335 3 6067 7 6070 3 4 441 6 972 5 l966
-3 3 -2252z m21872 2247 c392 -15 664 -43 873 -92 l87 -20 0 -758 0 -757 -82
19 c-248 57 -528 83 -827 75 -226 -6 -312 -20 -457 -76 -301 -116 -435 -301
-473 -653 -6 -55 -11 -309 -11 -588 l0 -490 825 0 825 0 0 -725 0 -725 -825 0
-825 0 0 -3670 0 -3670 -970 0 -970 0 0 3670 0 3670 -725 0 -725 0 2 723 3
722 722 3 721 2 5 568 c5 591 11 700 57 972 153 901 634 1493 1372 1690 376
99 797 133 1398 110z m-30005 -3110 c956 -53 1744 -374 2466 -1006 1036 -907
1606 -2449 1463 -3959 -7 -82 -14 -153 -14 -157 0 -5 -1454 -8 -3232 -8
l-3231 0 7 -142 c12 -271 51 -519 120 -769 127 -461 370 -868 686 -1147 260
-229 622 -412 955 -481 478 -99 1084 -69 1504 76 543 187 935 583 1181 1196
l49 122 921 3 c875 2 921 1 916 -15 -3 -10 -19 -74 -36 -142 -190 -760 -610
-1422 -1226 -1933 -503 -416 -1177 -712 -1899 -832 -313 -52 -424 -60 -825
-60 -413 -1 -569 11 -888 64 -1169 197 -2134 835 -2718 1799 -449 743 -684
1687 -684 2746 0 743 133 1418 407 2070 482 1145 1392 2009 2508 2380 465 154
1031 224 1570 195z m37480 0 c295 -20 545 -67 810 -155 421 -138 705 -300 959
-545 194 -187 328 -383 451 -656 l43 -95 82 106 c347 450 791 834 1205 1042
519 262 1162 357 1935 287 658 -60 1200 -259 1619 -594 420 -336 676 -827 790
-1515 59 -351 55 -111 58 -3652 l3 -3243 -969 0 -970 0 -4 2873 c-4 2860 -5
2949 -37 3282 -39 395 -170 727 -369 938 -259 274 -624 397 -1182 397 -454 0
-805 -90 -1094 -281 -113 -75 -286 -251 -368 -374 -207 -314 -321 -662 -388
-1195 -10 -72 -13 -775 -16 -2867 l-3 -2773 -970 0 -969 0 -4 2968 c-3 2673
-5 2980 -20 3099 -33 269 -78 468 -142 635 -156 404 -399 622 -813 728 -169
43 -285 54 -542 55 -217 0 -258 -3 -358 -23 -225 -46 -481 -150 -662 -270
-467 -311 -801 -875 -894 -1512 -34 -230 -36 -400 -36 -3042 l0 -2638 -970 0
-970 0 0 4395 0 4395 920 0 920 0 0 -615 0 -615 23 0 c17 0 39 22 90 94 307
433 631 752 966 954 510 307 1191 456 1876 412z m-12815 -4400 l0 -920 -4250
0 -4250 0 0 920 0 920 4250 0 4250 0 0 -920z"/>
<path d="M9000 32013 c-308 -30 -566 -101 -814 -225 -442 -221 -763 -552
-1001 -1029 -151 -305 -231 -604 -260 -971 l-7 -88 2259 0 2259 0 -8 83 c-31
334 -131 698 -272 992 -227 473 -558 811 -1017 1039 -222 111 -418 167 -674
196 -83 9 -384 11 -465 3z"/>
</g>
</svg>
