<?xml version="1.0" standalone="no"?>
<!DOCTYPE svg PUBLIC "-//W3C//DTD SVG 20010904//EN"
 "http://www.w3.org/TR/2001/REC-SVG-20010904/DTD/svg10.dtd">
<svg version="1.0" xmlns="http://www.w3.org/2000/svg"
 width="500.000000pt" height="500.000000pt" viewBox="0 0 500.000000 500.000000"
 preserveAspectRatio="xMidYMid meet">
<metadata>
Created by potrace 1.11, written by Peter Selinger 2001-2013
</metadata>
<g transform="translate(0.000000,500.000000) scale(0.100000,-0.100000)"
fill="#000000" stroke="none">
<path d="M0 2500 l0 -2500 2500 0 2500 0 0 2500 0 2500 -2500 0 -2500 0 0
-2500z m1710 641 c6 -224 9 -232 76 -188 67 44 134 60 233 55 148 -7 234 -64
283 -188 22 -53 22 -68 23 -415 l0 -360 -135 0 -135 0 -5 315 c-5 263 -8 321
-22 352 -24 53 -60 73 -133 73 -80 0 -122 -25 -155 -90 -25 -49 -25 -55 -30
-350 l-5 -300 -135 0 -135 0 -3 635 c-1 349 0 641 3 648 3 9 37 12 137 10
l133 -3 5 -194z m1368 177 c7 -7 12 -42 12 -88 0 -46 -5 -81 -12 -88 -7 -7
-40 -12 -80 -12 -78 0 -88 -9 -88 -84 0 -62 17 -76 94 -76 35 0 67 -5 74 -12
16 -16 16 -130 0 -146 -7 -7 -40 -12 -78 -12 -38 0 -71 -5 -78 -12 -9 -9 -12
-104 -12 -368 0 -264 -3 -359 -12 -368 -15 -15 -206 -16 -228 -2 -13 8 -16 65
-20 377 l-5 368 -60 3 c-32 2 -65 8 -72 14 -17 14 -17 130 -1 146 7 7 32 12
56 12 82 0 82 0 82 175 0 126 3 156 16 169 13 13 46 16 208 16 136 0 195 -3
204 -12z m-2196 -309 c210 -45 357 -253 358 -506 l0 -63 -319 0 c-361 0 -350
2 -331 -72 26 -93 88 -137 196 -138 75 0 138 30 173 83 l24 37 124 0 123 0
-19 -50 c-61 -159 -165 -248 -330 -281 -73 -14 -192 -7 -268 16 -129 39 -240
155 -285 298 -32 102 -32 264 0 358 82 238 311 369 554 318z m3075 -29 c28
-12 65 -37 84 -56 18 -19 37 -34 42 -34 5 0 36 20 69 45 78 58 149 79 243 72
148 -13 221 -55 275 -161 l35 -69 0 -366 0 -366 -124 -3 c-80 -2 -128 1 -137
8 -10 9 -14 79 -16 329 -3 345 -4 348 -62 387 -38 24 -129 21 -167 -7 -60 -43
-63 -62 -69 -404 l-5 -310 -135 0 -135 0 -5 330 c-5 302 -7 332 -24 358 -25
38 -48 48 -105 49 -76 0 -126 -33 -156 -105 -12 -30 -15 -88 -15 -324 0 -158
-4 -294 -8 -301 -7 -9 -41 -12 -138 -10 l-129 3 -3 460 c-2 424 -1 461 15 473
18 13 178 17 221 6 12 -4 25 -17 28 -29 9 -36 26 -36 78 -2 26 17 69 36 94 44
66 18 186 10 249 -17z"/>
<path d="M680 2778 c-52 -27 -92 -81 -88 -118 l3 -25 173 -3 c199 -3 203 -1
161 76 -34 64 -64 83 -140 89 -53 4 -72 1 -109 -19z"/>
</g>
</svg>
